<svg version="1.1" viewBox="0.0 0.0 800.0 800.0" fill="none" stroke="none" stroke-linecap="square" stroke-miterlimit="10" xmlns:xlink="http://www.w3.org/1999/xlink" xmlns="http://www.w3.org/2000/svg"><clipPath id="g1176d8d0035_0_0.0"><path d="m0 0l800.0 0l0 800.0l-800.0 0l0 -800.0z" clip-rule="nonzero"/></clipPath><g clip-path="url(#g1176d8d0035_0_0.0)"><path fill="#97e44b" d="m239.9193 84.13711l159.0236 0l0 160.18896l-159.0236 0z" fill-rule="evenodd"/><path fill="#3d6e0f" d="m403.3899 724.98126l0 0c-43.340973 0 -84.9068 -16.87201 -115.5535 -46.90442c-30.646698 -30.03241 -47.863815 -70.765076 -47.863815 -113.237305l163.41731 0z" fill-rule="evenodd"/><path fill="#000000" fill-opacity="0.0" d="m403.3899 724.98126l0 0c-43.340973 0 -84.9068 -16.87201 -115.5535 -46.90442c-30.646698 -30.03241 -47.863815 -70.765076 -47.863815 -113.237305" fill-rule="evenodd"/><path fill="#6bb721" d="m399.99988 403.37384l160.18896 0l0 179.52753l-160.18896 0z" fill-rule="evenodd"/><path fill="#7dd02b" d="m388.07904 244.38187l0 0c95.03647 0 172.07874 71.69791 172.07874 160.14172l-172.07874 0z" fill-rule="evenodd"/><path fill="#000000" fill-opacity="0.0" d="m388.07904 244.38187l0 0c95.03647 0 172.07874 71.69791 172.07874 160.14172" fill-rule="evenodd"/><path fill="#88de34" d="m400.0481 404.0076l0 0c-42.47223 0 -83.204895 -18.322113 -113.237305 -50.93573c-30.03238 -32.613617 -46.90442 -76.84717 -46.90442 -122.96977l160.14172 0z" fill-rule="evenodd"/><path fill="#000000" fill-opacity="0.0" d="m400.0481 404.0076l0 0c-42.47223 0 -83.204895 -18.322113 -113.237305 -50.93573c-30.03238 -32.613617 -46.90442 -76.84717 -46.90442 -122.96977" fill-rule="evenodd"/><path fill="#97e44b" d="m239.91945 243.86923l0 0c0 -42.472214 16.872025 -83.204895 46.904434 -113.237305c30.03238 -30.032394 70.765076 -46.90442 113.237305 -46.90442l0 160.14172z" fill-rule="evenodd"/><path fill="#000000" fill-opacity="0.0" d="m239.91945 243.86923l0 0c0 -42.472214 16.872025 -83.204895 46.904434 -113.237305c30.03238 -30.032394 70.765076 -46.90442 113.237305 -46.90442" fill-rule="evenodd"/><path fill="#a9f260" d="m400.0612 83.7386l0 0c42.47223 0 83.204895 16.872025 113.237274 46.904434c30.03241 30.032394 46.90442 70.765076 46.90442 113.237305l-160.1417 0z" fill-rule="evenodd"/><path fill="#000000" fill-opacity="0.0" d="m400.0612 83.7386l0 0c42.47223 0 83.204895 16.872025 113.237274 46.904434c30.03241 30.032394 46.90442 70.765076 46.90442 113.237305" fill-rule="evenodd"/><path fill="#a9f260" d="m239.86057 243.71552l0 0c-42.472214 0 -83.204895 -16.789078 -113.2373 -46.673813c-30.032402 -29.884735 -46.904427 -70.41713 -46.904427 -112.68052l160.14172 0z" fill-rule="evenodd"/><path fill="#000000" fill-opacity="0.0" d="m239.86057 243.71552l0 0c-42.472214 0 -83.204895 -16.789078 -113.2373 -46.673813c-30.032402 -29.884735 -46.904427 -70.41713 -46.904427 -112.68052" fill-rule="evenodd"/><path fill="#000000" fill-opacity="0.0" d="m240.01805 84.313934l-0.15748596 159.40158" fill-rule="evenodd"/><path stroke="#97e44b" stroke-width="1.0" stroke-linejoin="round" stroke-linecap="butt" d="m240.01805 84.313934l-0.15748596 159.40158" fill-rule="evenodd"/><path fill="#c2ff85" d="m560.1392 244.38211l0 0c42.47223 0 83.204895 16.87204 113.237305 46.90442c30.032349 30.03241 46.90442 70.765076 46.90442 113.237305l-160.14172 0z" fill-rule="evenodd"/><path fill="#000000" fill-opacity="0.0" d="m560.1392 244.38211l0 0c42.47223 0 83.204895 16.87204 113.237305 46.90442c30.032349 30.03241 46.90442 70.765076 46.90442 113.237305" fill-rule="evenodd"/><path fill="#569816" d="m560.19196 564.85065l0 0c0 42.47223 -16.87201 83.204895 -46.90442 113.237305c-30.03238 30.03241 -70.765076 46.90442 -113.237305 46.90442l0 -160.14172z" fill-rule="evenodd"/><path fill="#000000" fill-opacity="0.0" d="m560.19196 564.85065l0 0c0 42.47223 -16.87201 83.204895 -46.90442 113.237305c-30.03238 30.03241 -70.765076 46.90442 -113.237305 46.90442" fill-rule="evenodd"/></g></svg>